# xmcd
#
# Track frame offsets: 
#        150
#        15865
#        35555
#        62330
#        81767
#        103507
#        121332
#        139195
#
# Disc length: 2186 seconds
#
# Revision: 2
# Processed by: cddbd v1.5.2PL0 Copyright (c) Steve Scherf et al.
# Submitted via: ExactAudioCopy v1.0b3
#
DISCID=59088808
DTITLE=ANTONELLO VENDITTI - Venditti E Segreti
DYEAR=1986
DGENRE=Blues
TTITLE0=Peppino
TTITLE1=Questa Insostenibile Leggerezza dell'essere
TTITLE2=Giulio Cesare
TTITLE3=Esterina
TTITLE4=Segreti
TTITLE5=Rocky, Rambo E Sting
TTITLE6=Settembre
TTITLE7=C'è Un Cuore Che Batte Nel Cuore
EXTD=
EXTT0=
EXTT1=
EXTT2=
EXTT3=
EXTT4=
EXTT5=
EXTT6=
EXTT7=
PLAYORDER=
